<svg width="190" height="220" viewBox="0 0 190 220" fill="none" xmlns="http://www.w3.org/2000/svg">
<g clip-path="url(#clip0_1290_55)">
<path d="M55.5085 19.5461C69.8305 2.28455 87.5424 -2.28468 109.237 0.930705C120.593 2.62301 132.373 5.58455 140.763 13.4538C148.559 20.7307 152.288 31.3076 157.881 40.3615C164.661 51.5307 174.407 60.8384 180.424 72.4307C199.153 108.477 188.136 164.831 166.949 197.323C162.627 204.008 157.373 210.438 150.508 214.5C135.593 223.3 116.864 219.492 99.8305 216.192C81.1017 212.638 62.0339 209.846 42.9661 208.746C27.7119 207.9 14.8305 204.431 6.77966 189.877C0.0847427 177.861 -0.593224 163.477 0.423726 149.769C3.72881 104.331 24.7458 61.5999 51.6102 24.5384C52.8814 22.8461 54.1525 21.1538 55.5085 19.5461Z" fill="#202E55"/>
<path d="M153.305 139.954C156.271 139.362 158.729 138.346 160.593 135.385C159.576 135.216 158.729 134.877 157.881 134.877C156.102 134.962 154.322 135.385 152.542 135.385C151.864 135.385 151.017 134.793 150.678 134.285C150.424 133.862 150.508 132.931 150.847 132.508C151.949 131.154 153.22 130.054 154.322 128.785C154.661 128.362 155.085 127.685 155 127.262C154.831 126.839 154.068 126.416 153.559 126.331C152.797 126.246 151.949 126.5 151.186 126.669C147.966 127.177 144.746 127.769 141.525 128.277C140.763 128.362 140 128.108 140.593 127.093C141.271 125.823 141.949 124.469 142.797 123.285C144.661 120.662 145.847 117.785 146.61 114.739C146.695 114.4 146.525 113.808 146.271 113.554C146.017 113.385 145.424 113.385 145.085 113.469C144.322 113.808 143.644 114.4 142.881 114.823C141.525 115.754 140.339 117.193 138.051 116.516C138.39 115.669 138.644 114.908 138.898 114.062C139.492 112.623 140.424 111.185 140.678 109.662C141.102 107.123 141.525 105.516 139.153 104.162C137.288 105.939 136.186 108.646 133.136 109.577C133.136 108.985 133.051 108.562 133.22 108.308C134.322 105.769 135.593 103.316 136.525 100.693C136.864 99.6771 136.949 97.9848 136.356 97.2233C135.424 96.0387 134.153 97.2233 133.22 97.9002C133.051 98.0694 132.881 98.2387 132.712 98.3233C132.034 98.6617 131.356 99.0002 130.339 99.5079C131.525 94.7694 133.814 90.9617 133.898 86.2233C130.678 87.4079 129.831 90.7079 127.458 92.8233C127.373 92.231 127.288 91.8079 127.373 91.4694C127.542 89.0156 127.797 86.4771 127.881 84.0233C127.881 83.1771 127.458 82.331 127.119 81.0617C125.763 82.6694 124.831 83.7694 123.559 85.2079C123.559 84.4464 123.559 84.1925 123.559 83.9387C123.729 82.331 123.983 80.7233 123.983 79.1156C123.983 78.6925 123.644 78.0156 123.305 77.931C123.051 77.8464 122.373 78.1848 122.119 78.5233C121.017 79.8771 120.254 79.9617 119.153 78.6079C117.627 76.7464 116.356 74.631 114.661 72.9387C113.39 71.6694 113.305 70.4848 113.644 68.8771C114.407 64.9848 115 61.0925 115.593 57.2002C115.932 55.0848 116.017 52.8848 116.441 50.6848C117.288 46.031 117.797 41.4617 116.949 36.8079C116.441 34.1848 113.983 32.6617 111.695 33.5079C110.678 33.931 109.661 34.6079 108.814 35.3694C107.881 36.3848 107.034 37.4848 106.356 38.754C104.407 42.731 102.542 46.7925 100.678 50.854C99.8305 52.7156 99.2373 54.7464 98.3898 57.2002C97.4576 56.1002 96.6949 55.4233 96.4407 54.6617C95.4237 51.8694 94.322 49.0771 93.7288 46.2002C92.6271 40.8694 91.8644 35.454 91.017 30.0387C90.678 27.5002 90.7627 24.9617 90.2542 22.5079C89.9153 20.8156 89.1525 19.1233 88.2203 17.6002C87.2881 16.1617 85.1695 16.0771 84.0678 17.431C83.3898 18.2771 82.6271 19.2079 82.2881 20.1387C81.3559 23.4387 80.4237 26.7387 80 30.1233C78.8983 37.4848 79.0678 44.8464 80.339 52.2079C81.017 56.1848 81.6949 60.1617 83.8136 63.631C84.0678 64.054 84.1525 64.6464 84.4068 65.154C82.7119 65.5771 81.1864 65.831 79.7458 66.3387C76.9492 67.2694 74.1525 68.1156 71.5254 69.3848C69.322 70.4848 67.5424 72.1771 65.5085 73.531C62.0339 75.9002 59.661 79.1156 58.6441 83.0925C57.2881 88.7617 56.5254 94.6002 55.2542 100.269C54.7458 102.3 53.8983 104.5 52.6271 106.193C50.9322 108.477 48.6441 110.339 46.8644 112.539C43.7288 116.431 40 119.731 36.017 122.693C33.5593 124.469 31.7797 126.839 29.8305 129.039C26.6102 132.762 24.5763 136.739 25.4237 141.9C26.1864 146.808 28.1356 150.785 32.9661 152.731C34.4915 153.323 36.1864 153.493 37.7966 153.577C39.7458 153.662 41.6949 153.493 43.5593 153.154C43.5593 153.154 50.4237 152.562 63.9831 146.893C66.9492 145.962 70 145.116 72.9661 144.185C75.9322 143.254 78.7288 141.985 81.8644 141.477C84.0678 141.139 84.7458 141.139 84.5763 143.762C84.322 147.231 83.9831 150.785 83.9831 154.254C83.9831 159.246 84.322 164.239 84.5763 169.231C84.661 171.262 85.1695 173.208 85.4237 175.239C85.9322 178.2 86.4407 181.162 86.8644 184.208C87.0339 185.393 87.6271 186.831 87.2034 187.846C87.2034 187.846 148.559 205.531 164.068 143.508C160.508 142.239 156.695 142.069 153.305 139.954ZM80.339 124.3C79.2373 127.769 77.6271 131.239 75.0847 133.946C72.6271 136.485 69.4068 138.262 65.8475 138.6C65.1695 138.685 64.5763 138.008 64.5763 137.331C64.5763 136.569 65.1695 136.146 65.8475 136.062C72.3729 135.554 76.1017 129.208 77.8814 123.708C78.3898 122.1 80.8475 122.693 80.339 124.3ZM89.9153 101.454C87.2881 103.485 84.4068 104.162 81.5254 105.008C77.6271 106.023 73.6441 106.785 69.7458 107.631C68.0509 107.969 66.6949 106.785 66.6102 104.585C66.5254 102.469 66.8644 100.354 67.0339 98.3233C67.2034 95.3617 67.7119 92.4848 69.0678 89.8617C71.2712 85.7156 74.5763 82.8387 81.1017 82.5002C82.5424 82.8387 85.4237 83.3464 88.0509 84.3617C90.339 85.2079 92.1186 86.9002 92.5424 89.5233C92.6271 89.7771 92.7966 90.031 92.9661 90.2848C94.9153 93.8387 93.1356 98.9156 89.9153 101.454Z" fill="white"/>
<path d="M79.0679 92.4844C76.7797 92.4844 74.8306 94.3459 74.8306 96.7151C74.8306 97.3921 75.0001 98.069 75.2543 98.5767C75.2543 98.6613 75.2543 98.7459 75.2543 98.7459C75.2543 99.4228 75.8475 100.015 76.5255 100.015C77.2034 100.015 77.7967 99.4228 77.7967 98.7459C77.7967 98.6613 77.7967 98.4921 77.7967 98.4074V98.3228V98.2382C77.7967 98.069 77.8814 97.8998 77.8814 97.8151C77.8814 97.7305 77.9662 97.6459 77.9662 97.6459L78.0509 97.4767L78.1356 97.3921H78.3051C78.4746 97.3921 78.6441 97.3074 78.8136 97.3074H78.9831C79.0678 97.3074 79.2373 97.3074 79.3221 97.3074C79.5763 97.3074 79.7458 97.3074 80.0001 97.3074L80.2543 97.3921H80.339L80.4238 97.4767L80.5085 97.3074C80.5085 97.3921 80.5933 97.4767 80.5933 97.4767C80.5933 97.5613 80.678 97.6459 80.678 97.7305V97.8151C80.678 98.069 80.678 98.3228 80.678 98.5767C80.678 99.2536 81.2712 99.8459 81.9492 99.8459C82.6272 99.8459 83.2204 99.2536 83.2204 98.5767C83.2204 98.2382 83.2204 97.8998 83.1356 97.5613C83.2204 97.3075 83.2204 96.969 83.2204 96.6305C83.3051 94.3459 81.4407 92.4844 79.0679 92.4844Z" fill="white"/>
</g>
<defs>
<clipPath id="clip0_1290_55">
<rect width="190" height="220" fill="white"/>
</clipPath>
</defs>
</svg>
